<?xml version="1.0" encoding="UTF-8"?>
<svg width="399px" height="97px" viewBox="0 0 399 97" version="1.1" xmlns="http://www.w3.org/2000/svg" xmlns:xlink="http://www.w3.org/1999/xlink">
    <!-- Generator: Sketch 52.3 (67297) - http://www.bohemiancoding.com/sketch -->
    <title>Group</title>
    <desc>Created with Sketch.</desc>
    <g id="Page-1" stroke="none" stroke-width="1" fill="none" fill-rule="evenodd">
        <g id="Desktop" transform="translate(0.000000, -588.000000)">
            <g id="Group" transform="translate(149.500000, 665.000000) scale(-1, 1) translate(-149.500000, -665.000000) translate(-157.000000, 563.000000)">
                <g id="Group-22-Copy-9" transform="translate(265.927844, 101.168120) rotate(-10.000000) translate(-265.927844, -101.168120) translate(137.427844, 58.668120)">
                    <polygon id="Fill-1" fill="#FFC255" points="60.429686 -0.000179577465 68.5170986 35.3167218 74.4077303 -0.000179577465"></polygon>
                    <polygon id="Fill-2" fill="#EDAA3E" points="74.4079699 -0.000179577465 68.5173382 35.3167218 69.4159396 49.483588 94.277245 49.483588 98.1711844 26.6371444 91.5814408 9.17862324"></polygon>
                    <polygon id="Fill-3" fill="#B76421" points="0 64.0491761 14.1397925 81.8399155 59.2316107 76.2209366 69.4157599 49.4836479 33.7095338 56.9229437 6.54121911 33.9214648"></polygon>
                    <polygon id="Fill-4" fill="#EAA01C" points="6.54127902 33.9214049 43.132927 5.46855282 33.7095937 56.9228838"></polygon>
                    <polygon id="Fill-5" fill="#DD8126" points="60.429686 -0.000179577465 43.1328072 5.46855282 33.7094739 56.9228838 69.4157 49.483588 68.5170986 35.3167218"></polygon>
                    <polygon id="Fill-6" fill="#CE8919" points="69.4158797 49.483588 94.2771851 49.483588 94.2771851 62.5526373 110.751544 78.615243 89.0611035 73.2374965 59.2317305 76.2208768"></polygon>
                    <polygon id="Fill-7" fill="#EAA01C" points="98.1711245 26.6371444 114.046416 35.3167218 127.525437 23.9434824 119.538069 1.19700352"></polygon>
                    <polygon id="Fill-8" fill="#FFC255" points="110.751724 -0.000179577465 91.5815606 9.17862324 98.1707051 26.6371444 119.537649 1.19700352"></polygon>
                    <polygon id="Fill-9" fill="#FFC255" points="94.2771851 49.483588 127.525437 55.070243 122.333318 73.8265106 110.751544 78.615243 94.2771851 62.5526373"></polygon>
                    <polygon id="Fill-10" fill="#CE8919" points="98.1711245 26.6371444 114.046416 35.3167218 127.525437 23.9434824 127.525437 55.070243 94.2771851 49.483588"></polygon>
                    <polygon id="Fill-11" fill="#FFC255" points="181.414323 21.9483768 189.501736 57.2652782 195.392367 21.9483768"></polygon>
                    <polygon id="Fill-12" fill="#EDAA3E" points="195.392667 21.9483768 212.566138 31.126581 219.155881 48.5857007 215.261942 71.4321444 189.502035 76.2208768 189.502035 57.2652782"></polygon>
                    <polygon id="Fill-13" fill="#EDAA3E" points="127.525437 55.8699613 168.634055 31.126581 158.649994 71.4321444"></polygon>
                    <polygon id="Fill-14" fill="#B76421" points="168.634114 31.126581 181.414024 21.9483768 189.501436 57.2652782 189.501436 76.2208768 158.649455 71.4321444"></polygon>
                    <polygon id="Fill-15" fill="#EDAA3E" points="219.155402 48.5859401 235.031293 57.2655176 256.800211 44.5598134 240.522346 23.1452007"></polygon>
                    <polygon id="Fill-16" fill="#FFC255" points="212.565838 31.126581 231.736001 21.9483768 240.522526 23.1455599 219.155582 48.5857007"></polygon>
                    <polygon id="Fill-17" fill="#CE8919" points="235.030993 57.2654577 219.155103 48.5858803 215.261762 71.4317254 248.510014 77.0183803 256.799911 44.5597535"></polygon>
                    <polygon id="Fill-18" fill="#FFC255" points="127.525437 23.9434824 168.634055 31.126581 127.525437 55.8699613"></polygon>
                    <polygon id="Fill-19" fill="#FFC255" points="150.565517 -0.000179577465 119.538009 1.19700352 127.525377 23.9434824 155.757636 11.0552077"></polygon>
                    <polygon id="Fill-20" fill="#DD8126" points="155.757696 11.055088 181.414563 21.948257 168.634055 31.1264613 127.525437 23.9433627"></polygon>
                    <polygon id="Fill-21" fill="#DD8126" points="122.333438 73.8266303 137.646804 84.4821585 137.648601 84.4821585 158.649515 71.4316655 127.525557 55.870081"></polygon>
                </g>
                <g id="Group-22-Copy-3" transform="translate(133.927844, 125.168120) scale(-1, 1) rotate(10.000000) translate(-133.927844, -125.168120) translate(5.427844, 82.668120)">
                    <polygon id="Fill-1" fill="#FFC255" points="60.429686 -0.000179577465 68.5170986 35.3167218 74.4077303 -0.000179577465"></polygon>
                    <polygon id="Fill-2" fill="#EDAA3E" points="74.4079699 -0.000179577465 68.5173382 35.3167218 69.4159396 49.483588 94.277245 49.483588 98.1711844 26.6371444 91.5814408 9.17862324"></polygon>
                    <polygon id="Fill-3" fill="#B76421" points="0 64.0491761 14.1397925 81.8399155 59.2316107 76.2209366 69.4157599 49.4836479 33.7095338 56.9229437 6.54121911 33.9214648"></polygon>
                    <polygon id="Fill-4" fill="#EAA01C" points="6.54127902 33.9214049 43.132927 5.46855282 33.7095937 56.9228838"></polygon>
                    <polygon id="Fill-5" fill="#DD8126" points="60.429686 -0.000179577465 43.1328072 5.46855282 33.7094739 56.9228838 69.4157 49.483588 68.5170986 35.3167218"></polygon>
                    <polygon id="Fill-6" fill="#CE8919" points="69.4158797 49.483588 94.2771851 49.483588 94.2771851 62.5526373 110.751544 78.615243 89.0611035 73.2374965 59.2317305 76.2208768"></polygon>
                    <polygon id="Fill-7" fill="#EAA01C" points="98.1711245 26.6371444 114.046416 35.3167218 127.525437 23.9434824 119.538069 1.19700352"></polygon>
                    <polygon id="Fill-8" fill="#FFC255" points="110.751724 -0.000179577465 91.5815606 9.17862324 98.1707051 26.6371444 119.537649 1.19700352"></polygon>
                    <polygon id="Fill-10" fill="#CE8919" points="98.1711245 26.6371444 114.046416 35.3167218 127.525437 23.9434824 127.525437 55.070243 94.2771851 49.483588"></polygon>
                    <polygon id="Fill-11" fill="#FFC255" points="181.414323 21.9483768 189.501736 57.2652782 195.392367 21.9483768"></polygon>
                    <polygon id="Fill-12" fill="#EDAA3E" points="195.392667 21.9483768 212.566138 31.126581 219.155881 48.5857007 215.261942 71.4321444 189.502035 76.2208768 189.502035 57.2652782"></polygon>
                    <polygon id="Fill-13" fill="#EDAA3E" points="127.525437 55.8699613 168.634055 31.126581 158.649994 71.4321444"></polygon>
                    <polygon id="Fill-14" fill="#B76421" points="168.634114 31.126581 181.414024 21.9483768 189.501436 57.2652782 189.501436 76.2208768 158.649455 71.4321444"></polygon>
                    <polygon id="Fill-18" fill="#FFC255" points="127.525437 23.9434824 168.634055 31.126581 127.525437 55.8699613"></polygon>
                    <polygon id="Fill-19" fill="#FFC255" points="150.565517 -0.000179577465 119.538009 1.19700352 127.525377 23.9434824 155.757636 11.0552077"></polygon>
                    <polygon id="Fill-20" fill="#DD8126" points="155.757696 11.055088 181.414563 21.948257 168.634055 31.1264613 127.525437 23.9433627"></polygon>
                </g>
                <g id="Group-22-Copy-10" transform="translate(478.927844, 64.168120) scale(-1, 1) rotate(10.000000) translate(-478.927844, -64.168120) translate(350.427844, 21.668120)">
                    <polygon id="Fill-11" fill="#FFC255" points="181.414323 21.9483768 189.501736 57.2652782 195.392367 21.9483768"></polygon>
                    <polygon id="Fill-12" fill="#EDAA3E" points="195.392667 21.9483768 212.566138 31.126581 219.155881 48.5857007 215.261942 71.4321444 189.502035 76.2208768 189.502035 57.2652782"></polygon>
                    <polygon id="Fill-13" fill="#EDAA3E" points="127.525437 55.8699613 168.634055 31.126581 158.649994 71.4321444"></polygon>
                    <polygon id="Fill-14" fill="#B76421" points="168.634114 31.126581 181.414024 21.9483768 189.501436 57.2652782 189.501436 76.2208768 158.649455 71.4321444"></polygon>
                    <polygon id="Fill-15" fill="#EDAA3E" points="219.155402 48.5859401 235.031293 57.2655176 256.800211 44.5598134 240.522346 23.1452007"></polygon>
                    <polygon id="Fill-16" fill="#FFC255" points="212.565838 31.126581 231.736001 21.9483768 240.522526 23.1455599 219.155582 48.5857007"></polygon>
                    <polygon id="Fill-17" fill="#CE8919" points="235.030993 57.2654577 219.155103 48.5858803 215.261762 71.4317254 248.510014 77.0183803 256.799911 44.5597535"></polygon>
                    <polygon id="Fill-18" fill="#FFC255" points="127.525437 23.9434824 168.634055 31.126581 127.525437 55.8699613"></polygon>
                    <polygon id="Fill-19" fill="#FFC255" points="150.565517 -0.000179577465 119.538009 1.19700352 127.525377 23.9434824 155.757636 11.0552077"></polygon>
                    <polygon id="Fill-20" fill="#DD8126" points="155.757696 11.055088 181.414563 21.948257 168.634055 31.1264613 127.525437 23.9433627"></polygon>
                    <polygon id="Fill-21" fill="#DD8126" points="122.333438 73.8266303 137.646804 84.4821585 137.648601 84.4821585 158.649515 71.4316655 127.525557 55.870081"></polygon>
                </g>
                <g id="Group-22-Copy-11" transform="translate(382.927844, 139.168120) scale(-1, 1) rotate(10.000000) translate(-382.927844, -139.168120) translate(254.427844, 96.668120)">
                    <polygon id="Fill-1" fill="#FFC255" points="60.429686 -0.000179577465 68.5170986 35.3167218 74.4077303 -0.000179577465"></polygon>
                    <polygon id="Fill-2" fill="#EDAA3E" points="74.4079699 -0.000179577465 68.5173382 35.3167218 69.4159396 49.483588 94.277245 49.483588 98.1711844 26.6371444 91.5814408 9.17862324"></polygon>
                    <polygon id="Fill-3" fill="#B76421" points="0 64.0491761 14.1397925 81.8399155 59.2316107 76.2209366 69.4157599 49.4836479 33.7095338 56.9229437 6.54121911 33.9214648"></polygon>
                    <polygon id="Fill-5" fill="#DD8126" points="60.429686 -0.000179577465 43.1328072 5.46855282 33.7094739 56.9228838 69.4157 49.483588 68.5170986 35.3167218"></polygon>
                    <polygon id="Fill-7" fill="#EAA01C" points="98.1711245 26.6371444 114.046416 35.3167218 127.525437 23.9434824 119.538069 1.19700352"></polygon>
                    <polygon id="Fill-8" fill="#FFC255" points="110.751724 -0.000179577465 91.5815606 9.17862324 98.1707051 26.6371444 119.537649 1.19700352"></polygon>
                    <polygon id="Fill-10" fill="#CE8919" points="98.1711245 26.6371444 114.046416 35.3167218 127.525437 23.9434824 127.525437 55.070243 94.2771851 49.483588"></polygon>
                    <polygon id="Fill-18" fill="#FFC255" points="127.525437 23.9434824 168.634055 31.126581 127.525437 55.8699613"></polygon>
                    <polygon id="Fill-19" fill="#FFC255" points="150.565517 -0.000179577465 119.538009 1.19700352 127.525377 23.9434824 155.757636 11.0552077"></polygon>
                    <polygon id="Fill-20" fill="#DD8126" points="155.757696 11.055088 181.414563 21.948257 168.634055 31.1264613 127.525437 23.9433627"></polygon>
                </g>
            </g>
        </g>
    </g>
</svg>