<?xml version="1.0" encoding="UTF-8"?>
<svg width="124px" height="73px" viewBox="0 0 124 73" version="1.1" xmlns="http://www.w3.org/2000/svg" xmlns:xlink="http://www.w3.org/1999/xlink">
    <!-- Generator: Sketch 52.3 (67297) - http://www.bohemiancoding.com/sketch -->
    <title>Group 22 Copy 7</title>
    <desc>Created with Sketch.</desc>
    <g id="Page-1" stroke="none" stroke-width="1" fill="none" fill-rule="evenodd">
        <g id="Desktop">
            <g id="Group-22-Copy-7" transform="translate(50.693749, 10.592723) scale(-1, 1) rotate(-158.000000) translate(-50.693749, -10.592723) translate(-68.306251, -30.407277)">
                <polygon id="Fill-1" fill="#FFC255" points="56.6117083 0.000346478873 64.4102519 34.0701915 70.0904801 0.000346478873"></polygon>
                <polygon id="Fill-2" fill="#EDAA3E" points="64.4102519 34.0704803 65.2767568 47.736762 89.2500578 47.736762 93.0049121 25.6972408 86.6505432 8.85432535 70.0904801 0.000635211268"></polygon>
                <polygon id="Fill-3" fill="#B76421" points="0 47.736993 22.3367621 63.1362465 55.4563107 73.5306127 65.276699 47.736993 34.6601942 47.736993 4.64793204 32.7246408"></polygon>
                <polygon id="Fill-5" fill="#DD8126" points="39.932183 5.27496761 34.6603675 47.7371085 65.2768723 47.7371085 64.4103675 34.0702493 56.6118238 0.000404225352"></polygon>
                <polygon id="Fill-6" fill="#CE8919" points="65.2768146 47.7368197 89.2501155 47.7368197 89.2501155 60.3451859 105.136038 75.8402986 86.2652951 67.3706225 55.4564262 73.5304394"></polygon>
                <polygon id="Fill-7" fill="#EAA01C" points="93.0049699 25.6972986 108.313222 34.070538 121.310795 23.098707 113.608722 1.15504507"></polygon>
                <polygon id="Fill-8" fill="#FFC255" points="86.6506587 8.85426761 93.0050277 25.6971831 113.60878 1.15492958 105.136096 0.000577464789"></polygon>
                <polygon id="Fill-9" fill="#FFC255" points="89.2501155 47.7368197 121.310795 53.1268761 116.30413 71.2205803 105.136038 75.8402986 89.2501155 60.3451859"></polygon>
                <polygon id="Fill-10" fill="#CE8919" points="93.0049699 25.6972986 108.313222 34.070538 121.310795 23.098707 121.310795 53.1268761 89.2501155 47.7368197"></polygon>
                <polygon id="Fill-11" fill="#FFC255" points="173.274571 21.1734394 181.073115 55.243862 186.753343 21.1734394"></polygon>
                <polygon id="Fill-12" fill="#EDAA3E" points="186.753632 21.1734394 203.313695 30.0282845 209.668064 46.8706225 205.91321 68.9107211 181.073404 73.5304394 181.073404 55.243862"></polygon>
                <polygon id="Fill-13" fill="#EDAA3E" points="121.310795 53.8977915 160.951082 30.0282845 151.323057 68.9107211"></polygon>
                <polygon id="Fill-14" fill="#B76421" points="160.951082 30.0282845 173.274514 21.1734394 181.073057 55.243862 181.073057 73.5304394 151.323057 68.9107211"></polygon>
                <polygon id="Fill-18" fill="#FFC255" points="121.310795 23.098707 160.951082 30.0282845 121.310795 53.8977915"></polygon>
                <polygon id="Fill-19" fill="#FFC255" points="113.608665 1.15516056 121.310737 23.0988225 148.534009 10.6642732 143.527922 0.000230985915"></polygon>
                <polygon id="Fill-20" fill="#DD8126" points="148.534298 10.6646197 173.274745 21.1733239 160.951313 30.028169 121.311026 23.0985915"></polygon>
            </g>
        </g>
    </g>
</svg>